<svg width="248" height="191" viewBox="0 0 248 191" fill="none" xmlns="http://www.w3.org/2000/svg">
<path d="M22.0837 3.86176H211.277C216.466 3.86176 220.672 8.04889 220.672 13.214V159.462C220.672 164.627 216.466 168.814 211.277 168.814H22.0837C16.895 168.814 12.6888 164.627 12.6888 159.462V13.214C12.6888 8.04889 16.895 3.86176 22.0837 3.86176Z" fill="#0B5243"/>
<path d="M24.8196 3.86176H207.99C213.166 3.86176 217.362 8.04889 217.362 13.214V159.462C217.362 164.627 213.166 168.814 207.99 168.814H24.8196C19.6434 168.814 15.4472 164.627 15.4472 159.462V13.214C15.4472 8.04889 19.6434 3.86176 24.8196 3.86176Z" fill="white" stroke="#0B5243" stroke-width="0.75" stroke-miterlimit="10"/>
<path d="M207.99 3.86176H24.8194C19.6494 3.86176 15.4472 8.18924 15.4472 13.5256V18.7571H217.362V13.5256C217.362 8.18924 213.16 3.86176 207.99 3.86176Z" fill="#CBEDE1" stroke="#0B5243" stroke-width="0.75" stroke-miterlimit="10"/>
<path d="M205.225 14.3436C203.702 14.3436 202.467 13.1086 202.467 11.5852C202.467 10.0617 203.702 8.82677 205.225 8.82677C206.749 8.82677 207.984 10.0617 207.984 11.5852C207.984 13.1086 206.749 14.3436 205.225 14.3436Z" fill="#FBF9ED" stroke="#0B5243" stroke-width="0.75" stroke-miterlimit="10"/>
<path d="M196.95 14.3436C195.426 14.3436 194.191 13.1086 194.191 11.5852C194.191 10.0617 195.426 8.82677 196.95 8.82677C198.473 8.82677 199.708 10.0617 199.708 11.5852C199.708 13.1086 198.473 14.3436 196.95 14.3436Z" fill="#FBF9ED" stroke="#0B5243" stroke-width="0.75" stroke-miterlimit="10"/>
<path d="M188.123 14.3436C186.6 14.3436 185.365 13.1086 185.365 11.5852C185.365 10.0617 186.6 8.82677 188.123 8.82677C189.647 8.82677 190.882 10.0617 190.882 11.5852C190.882 13.1086 189.647 14.3436 188.123 14.3436Z" fill="#FBF9ED" stroke="#0B5243" stroke-width="0.75" stroke-miterlimit="10"/>
<path d="M34.0879 26.4806H144.657C148.554 26.4806 151.712 29.8552 151.712 34.018V106.161C151.712 110.323 148.554 113.698 144.657 113.698H34.0879C30.1914 113.698 27.0326 110.323 27.0326 106.161V34.018C27.0326 29.8552 30.1914 26.4806 34.0879 26.4806Z" fill="#CBEDE1"/>
<path d="M102.519 92.6253H144.712C145.669 92.6253 146.444 93.3326 146.444 94.2051V94.5576C146.444 95.4301 145.669 96.1374 144.712 96.1374H102.519C101.562 96.1374 100.787 95.4301 100.787 94.5576V94.2051C100.787 93.3326 101.562 92.6253 102.519 92.6253Z" fill="#83BAA0"/>
<path d="M110.15 100.235H144.691C145.659 100.235 146.444 100.942 146.444 101.815V102.167C146.444 103.04 145.659 103.747 144.691 103.747H110.15C109.182 103.747 108.397 103.04 108.397 102.167V101.815C108.397 100.942 109.182 100.235 110.15 100.235Z" fill="#83BAA0"/>
<path d="M36.7102 99.6495H53.6469C54.789 99.6495 55.7148 100.509 55.7148 101.57V104.168C55.7148 105.229 54.789 106.088 53.6469 106.088H36.7102C35.5681 106.088 34.6422 105.229 34.6422 104.168V101.57C34.6422 100.509 35.5681 99.6495 36.7102 99.6495Z" fill="#0B5243"/>
<path d="M143.177 74.8499C143.177 74.8499 131.437 57.2567 123.481 57.2567C115.015 57.2567 109.671 65.4382 102.098 65.4382C93.2945 65.4382 88.7573 50.4245 78.5982 50.4245C68.4392 50.4245 63.4059 59.0359 54.2654 59.0359C45.1248 59.0359 38.3257 43.2218 38.3257 43.2218" stroke="#0B5243" stroke-width="0.75" stroke-linecap="round" stroke-linejoin="round"/>
<path d="M142.33 76.8076C140.913 76.8076 139.764 75.6587 139.764 74.2414C139.764 72.8241 140.913 71.6751 142.33 71.6751C143.748 71.6751 144.896 72.8241 144.896 74.2414C144.896 75.6587 143.748 76.8076 142.33 76.8076Z" fill="#FBF9ED"/>
<path d="M123.262 59.889C121.845 59.889 120.696 58.74 120.696 57.3228C120.696 55.9055 121.845 54.7565 123.262 54.7565C124.68 54.7565 125.829 55.9055 125.829 57.3228C125.829 58.74 124.68 59.889 123.262 59.889Z" fill="#FBF9ED"/>
<path d="M102.025 67.6274C100.608 67.6274 99.4588 66.4784 99.4588 65.0611C99.4588 63.6438 100.608 62.4949 102.025 62.4949C103.442 62.4949 104.591 63.6438 104.591 65.0611C104.591 66.4784 103.442 67.6274 102.025 67.6274Z" fill="#FBF9ED"/>
<path d="M78.8957 53.0235C77.4784 53.0235 76.3295 51.8745 76.3295 50.4572C76.3295 49.0399 77.4784 47.891 78.8957 47.891C80.313 47.891 81.4619 49.0399 81.4619 50.4572C81.4619 51.8745 80.313 53.0235 78.8957 53.0235Z" fill="#FBF9ED"/>
<path d="M55.1589 61.6022C53.7416 61.6022 52.5926 60.4533 52.5926 59.036C52.5926 57.6187 53.7416 56.4698 55.1589 56.4698C56.5762 56.4698 57.7251 57.6187 57.7251 59.036C57.7251 60.4533 56.5762 61.6022 55.1589 61.6022Z" fill="#FBF9ED"/>
<path d="M38.3259 45.788C36.9086 45.788 35.7596 44.6391 35.7596 43.2218C35.7596 41.8045 36.9086 40.6556 38.3259 40.6556C39.7431 40.6556 40.8921 41.8045 40.8921 43.2218C40.8921 44.6391 39.7431 45.788 38.3259 45.788Z" fill="#FBF9ED"/>
<g clip-path="url(#clip0_208_2139)">
<path d="M205.365 201.915L224.392 188.958L158.779 186.431L139.922 198.878L205.365 201.915Z" fill="#088D73"/>
<path d="M202.984 96.1771C202.371 95.679 197.853 94.045 189.338 94.045C180.824 94.045 177.217 96.1163 177.217 96.1163C177.217 96.1163 175.358 97.064 178.935 103.357C182.512 109.65 186.569 114.291 186.569 114.291L187.711 116.302L188.992 113.58L202.948 100.654C202.948 100.654 203.835 98.4611 203.683 97.7139C203.531 96.9668 203.598 96.6752 202.984 96.1771Z" fill="#0B5243"/>
<path d="M132.561 144.256C128.353 144.256 122.189 147.5 121.411 153.52C121.411 153.52 121.102 163.16 129.774 157.426C138.446 151.692 136.746 144.256 132.561 144.256Z" fill="#0B5243"/>
<path d="M167.324 67.4995C167.324 67.4995 165.903 58.1206 166.504 54.4759C166.656 53.5587 164.973 53.0363 164.919 52.1433C164.803 50.2542 162.538 50.9709 162.726 49.5556C163.564 43.2138 177.818 35.5904 182.063 34.1993C186.308 32.8083 196.365 34.3269 198.575 35.6937C200.786 37.0604 202.681 40.6383 202.681 40.6383C202.681 40.6383 205.341 40.8387 207.436 41.756C209.531 42.6732 211.821 49.3126 212.659 53.9778C213.497 58.643 210.327 67.6757 210.327 67.6757C210.327 67.6757 208.286 75.4814 187.17 76.7024C166.054 77.9233 167.33 67.4995 167.33 67.4995H167.324Z" fill="#031001"/>
<path d="M129.726 171.409C129.726 171.409 138.088 186.28 145.989 186.28C153.89 186.28 157.813 174.197 157.813 174.197L158.269 172.934V190.866H183.612L215.343 190.763C215.343 190.763 236.167 191.607 241.317 190.277C246.309 188.983 247.609 178.917 247.026 169.198C246.443 159.479 237.054 122.801 230.671 115.628C224.191 111.023 214.456 106.941 206.895 104.268L173.901 103.825C173.901 103.825 157.315 111.88 153.793 115.05C150.344 118.154 142.011 153.708 142.679 154.37L129.726 171.403V171.409Z" fill="#C9EBDF"/>
<path d="M178.455 90.3821V96.8635C178.455 99.0746 177.532 101.863 177.532 101.863L177.21 102.659L179.761 107.463C179.761 107.463 184.784 113.143 185.664 113.392C186.545 113.641 187.711 116.302 187.711 116.302C187.711 116.302 187.826 115.725 188.646 114.273C189.053 113.55 189.569 113.89 190.96 112.955C193.844 111.011 200.415 102.829 200.415 102.829L201.472 100.909C200.154 96.6387 200.446 89.2218 200.446 89.2218L178.462 90.3881L178.455 90.3821Z" fill="#E8B98E"/>
<path d="M204.497 81.2339C204.497 81.2339 205.584 81.4951 207.205 80.7723C208.827 80.0494 208.711 78.549 209.671 76.2589C210.63 73.9749 212.555 70.0022 211.292 68.0523C210.029 66.1024 206.586 67.1837 206.586 67.1837L204.49 81.2278L204.497 81.2339Z" fill="#F7CBA4"/>
<path d="M172.17 79.2111C172.17 79.2111 171.569 79.7275 170.348 79.2111C169.127 78.6948 168.83 76.7996 168.168 74.9954C167.506 73.1913 165.988 68.2589 167.263 66.9772C168.544 65.6954 169.832 67.7243 169.832 67.7243L172.17 79.205V79.2111Z" fill="#F7CBA4"/>
<path d="M176.871 97.4709C176.609 99.4937 179.585 106.024 186.338 113.422C187.274 114.164 187.753 116.593 187.753 116.593C187.025 115.293 186.29 113.945 185.695 113.866C183.636 113.866 180.369 123.98 178.595 124.223C176.822 124.466 173.646 104.135 173.895 103.345C174.144 102.555 175.954 97.1854 176.524 96.6144C176.773 96.3654 177.211 96.1163 177.211 96.1163C177.211 96.1163 177.004 96.3836 176.871 97.4709Z" fill="#0CC59D"/>
<path d="M224.392 118.379C224.392 118.379 219.047 120.888 216.539 131.585C214.031 142.282 216.539 149.043 216.539 149.043L223.711 167.74" stroke="#0B5243" stroke-width="0.75" stroke-linecap="round" stroke-linejoin="round"/>
<path d="M240.777 168.263C240.777 168.263 232.135 164.709 211.608 171.409" stroke="#0B5243" stroke-width="0.75" stroke-linecap="round" stroke-linejoin="round"/>
<path d="M151.734 140.837C151.734 140.837 153.847 149.067 158.269 153.49" stroke="#0B5243" stroke-width="0.75" stroke-linecap="round" stroke-linejoin="round"/>
<path d="M99.1782 129.532C98.3584 129.186 97.5021 129.356 97.6721 130.625C97.9393 132.606 98.8442 133.76 98.8442 133.76V133.778C97.5507 133.729 98.0244 135.297 98.8564 136.645L99.3179 137.398V137.435C98.6985 137.271 98.4191 137.745 98.8867 139.47C99.3361 141.134 100.441 142.89 101.164 143.613C101.887 144.335 105.5 146.844 106.855 147.707C108.209 148.569 117.822 151.655 123.343 153.265C124.648 154.31 126.373 158.234 126.373 158.234C126.373 158.234 129.853 160.421 133.029 157.244C136.205 154.067 134.554 150.367 134.554 150.367C133.26 149.316 132.501 148.229 132.027 147.02C132.027 147.02 131.535 142.568 129.428 139.324C127.321 136.08 121.891 133.274 121.891 133.274C121.891 133.274 116.814 127.382 114.889 126.969C112.964 126.555 112.976 127.977 113.523 128.839C114.069 129.702 117.215 134.653 117.215 134.653L117.452 135.029C117.452 135.029 112.903 134.865 111.361 134.361C109.818 133.857 105.525 132.29 104.522 131.281C103.52 130.279 102.026 128.785 101.316 128.074C100.605 127.363 99.2997 127.649 99.0507 128.402C98.8017 129.155 99.1782 129.538 99.1782 129.538" fill="#FFD9B3"/>
<path d="M210.236 171.306C212.549 171.306 214.614 173.803 215.568 177.739C216.77 182.708 216.794 190.987 214.614 191.224C212.434 191.461 200.932 191.965 200.932 191.965V173.809C200.932 173.809 207.922 171.3 210.236 171.3V171.306Z" fill="#0CC59D"/>
<path d="M153.592 119.867C154.333 131.209 155.572 142.161 158.269 152.001V190.866" stroke="#0B5243" stroke-width="0.75" stroke-linecap="round" stroke-linejoin="round"/>
<path d="M190.28 112.542C188.95 113.805 188.118 114.747 187.826 115.719C187.231 117.662 186.691 129.07 187.231 135.284" stroke="#0B5243" stroke-width="0.75" stroke-linecap="round" stroke-linejoin="round"/>
<path d="M203.349 96.5233C204.345 97.9265 206.816 103.327 206.816 104.444C206.816 105.562 199.583 124.824 198.205 125.128C196.826 125.432 191.342 114.182 189.308 114.334C188.664 114.334 188.087 114.492 188.087 114.492C188.682 112.548 191.421 110.732 195.964 106.182C200.513 101.632 202.207 100.508 202.942 99.3297C203.507 98.4186 203.774 97.7625 203.349 96.5233Z" fill="#0CC59D"/>
<path d="M169.832 67.7304C169.832 67.7304 172.516 82.8376 174.362 86.7009C176.208 90.5643 181.498 93.9903 183.004 95.108C184.51 96.2257 191.889 95.4117 193.377 94.2879C194.865 93.1642 201.612 89.8293 203.458 84.9636C205.304 80.0919 206.816 66.2725 206.816 66.2725C204.351 64.2072 201.466 57.0333 198.776 52.2891C190.626 49.8897 182.288 50.4789 175.729 52.8358C174.174 53.9049 171.696 58.315 169.832 67.7304Z" fill="#FFD9B3"/>
<path d="M183.119 63.624C182.548 63.053 180.478 61.7956 178.601 61.5101C176.724 61.2246 174.739 63.0895 175.565 63.46C176.39 63.8306 176.864 62.8404 178.601 63.1259C180.338 63.4114 182.791 64.602 183.326 64.7843C183.86 64.9665 183.69 64.195 183.119 63.624Z" fill="black"/>
<path d="M199.729 63.381C199.11 62.8586 198.442 62.3362 196.541 62.3362C194.64 62.3362 190.814 64.11 191.725 64.7174C192.484 65.2216 195.083 63.6544 196.839 63.8002C198.594 63.946 199.492 64.523 200.039 64.6628C200.586 64.8025 200.343 63.9035 199.723 63.375L199.729 63.381Z" fill="black"/>
<path d="M184.042 74.388C184.042 74.388 182.992 77.0243 183.757 77.7897C184.522 78.5551 185.986 79.2111 185.986 79.2111" stroke="#E2AD86" stroke-width="0.75" stroke-linecap="round" stroke-linejoin="round"/>
<path d="M191.901 74.388C191.901 74.388 194.008 78.3668 191.294 78.7738" stroke="#E2AD86" stroke-width="0.75" stroke-linecap="round" stroke-linejoin="round"/>
<path d="M190.474 78.1967C190.474 78.1967 189.363 77.9962 188.148 79.2111" stroke="#E2AD86" stroke-width="0.75" stroke-linecap="round" stroke-linejoin="round"/>
<path d="M117.47 135.218C118.727 138.735 120.786 140.205 123.154 140.879" stroke="#E2AD86" stroke-width="0.75" stroke-linecap="round" stroke-linejoin="round"/>
<path d="M110.705 138.194C110.705 138.194 108.422 137.49 106.369 136.354C104.711 135.436 103.363 134.215 102.719 133.571C101.875 132.727 101.025 131.64 100.326 130.461C100.077 130.042 99.64 129.69 99.1846 129.489" stroke="#E2AD86" stroke-width="0.75" stroke-linecap="round" stroke-linejoin="round"/>
<path d="M109.248 141.553C109.248 141.553 105.737 139.634 104.966 139.002C104.128 138.316 102.573 137.277 101.966 136.396C101.359 135.515 100.466 134.082 99.3121 133.881C99.2028 133.863 99.0996 133.851 99.0085 133.851" stroke="#E2AD86" stroke-width="0.75" stroke-linecap="round" stroke-linejoin="round"/>
<path d="M113.912 145.459C112.126 144.439 109.776 144.032 106.891 144.141C105.616 143.406 103.047 142.149 102.525 141.62C102.002 141.092 101.231 138.747 100.187 137.994C99.9923 137.854 99.6036 137.52 99.3242 137.429" stroke="#E2AD86" stroke-width="0.75" stroke-linecap="round" stroke-linejoin="round"/>
<path d="M121.904 156.539C123.586 163.221 125.863 167.819 128.651 170.583C128.651 170.583 131.627 173.074 135.944 173.074C140.262 173.074 145.072 161.654 143.766 155.452C142.461 154.146 138.319 150.252 135.179 145.417C135.179 145.417 138.094 151.552 130.989 156.247C123.883 160.943 121.898 156.539 121.898 156.539H121.904Z" fill="#0CC59D"/>
<path d="M183.375 70.2999C183.375 70.2999 182.488 68.1617 180.04 67.2383C177.593 66.315 175.856 68.1556 175.856 68.1556C175.856 68.1556 177.059 70.227 179.512 70.6765C181.966 71.126 183.375 70.2938 183.375 70.2938V70.2999Z" fill="white"/>
<path d="M183.375 70.2877C183.794 70.5003 182.913 67.8701 180.01 66.9589C177.107 66.0478 175.522 68.0706 175.747 68.2892C175.972 68.5079 177.308 66.6977 179.907 67.4753C182.203 68.0827 182.95 70.0751 183.375 70.2877Z" fill="black"/>
<path d="M177.909 67.1108C177.909 67.1108 177.399 69.8807 179.123 70.4214C180.848 70.962 181.316 69.7653 181.419 69.3887C181.522 69.0121 181.419 68.028 181.419 68.028C181.419 68.028 179.743 66.5459 177.915 67.1108H177.909Z" fill="black"/>
<path d="M200.361 69.3887C200.361 69.3887 198.071 66.9103 195.472 67.1837C192.873 67.457 191.458 69.2976 191.458 69.2976C191.458 69.2976 192.812 71.2232 195.788 70.9984C198.764 70.7737 200.361 69.3826 200.361 69.3826V69.3887Z" fill="white"/>
<path d="M200.361 69.3644C200.78 69.577 199.559 67.1897 196.541 66.7706C193.359 66.3272 190.93 69.1518 191.154 69.3765C191.379 69.6013 193.778 67.1472 196.669 67.6028C199.14 68.0523 199.948 69.1518 200.367 69.3644H200.361Z" fill="black"/>
<path d="M197.913 67.6271C197.913 67.6271 198.114 70.7555 195.642 70.7555C193.17 70.7555 193.389 67.7365 193.389 67.7365C193.389 67.7365 194.142 67.1655 195.478 67.1655C196.814 67.1655 197.913 67.6332 197.913 67.6332V67.6271Z" fill="black"/>
<path d="M191.804 70.5003C192.205 70.9013 193.613 72.2316 195.909 72.0615C197.695 71.9278 199.231 71.2718 199.674 71.0227C200.136 70.7615 200.227 70.9863 200.081 71.1868C199.838 71.5148 197.719 72.6386 195.915 72.6386C194.111 72.6386 192.107 71.7395 191.7 71.0227C191.294 70.306 191.403 70.0994 191.804 70.5003Z" fill="#F4BD98"/>
<path d="M176.178 69.9415C176.494 70.3667 177.624 71.776 179.615 71.7395C181.164 71.7092 182.531 71.1503 182.931 70.9256C183.35 70.6887 183.411 70.9256 183.271 71.1139C183.041 71.4297 181.14 72.4199 179.579 72.3166C178.018 72.2133 176.354 71.1989 176.057 70.4578C175.759 69.7167 175.862 69.5224 176.184 69.9415H176.178Z" fill="#F4BD98"/>
<path d="M194.075 84.423C194.075 84.423 190.48 83.5543 189.557 84.0767C188.634 84.5991 188.02 85.0183 187.528 84.8968C187.037 84.7753 186.253 83.9127 185.439 83.9127C184.626 83.9127 182.628 85.1823 181.844 85.1823C181.061 85.1823 184.219 88.2256 187.468 87.9644C190.717 87.7032 193.729 85.0122 194.075 84.4291V84.423Z" fill="white"/>
<path d="M192.685 84.6538C192.685 84.6538 190.577 85.9416 187.699 85.9416C184.82 85.9416 182.84 84.8907 182.84 84.8907L181.85 85.1762C181.85 85.1762 183.587 87.7397 187.808 87.4481C192.029 87.1565 193.699 84.6538 193.699 84.6538H192.685Z" fill="#F2EAE7"/>
<path d="M194.203 84.8907C193.547 85.1337 190.996 84.5505 189.952 84.7449C188.907 84.9393 188.725 85.6682 187.462 85.6682C186.198 85.6682 186.101 84.9332 185.13 84.7449C184.158 84.5566 182.293 85.9538 181.407 85.4253C180.52 84.8968 180.453 84.1436 181.091 84.4412C181.729 84.7389 182.208 84.7085 182.628 84.4291C183.593 83.7852 184.765 82.7282 185.427 82.7282C186.381 82.7282 186.721 83.7366 187.462 83.7366C188.203 83.7366 188.804 82.7282 189.751 82.7282C190.431 82.7282 191.695 83.3903 192.769 83.8884C193.195 84.0889 194.008 84.1132 194.427 83.8398C194.846 83.5665 194.865 84.6538 194.203 84.8968V84.8907Z" fill="#E8A381"/>
<path d="M193.152 84.8907C193.152 84.8907 189.848 86.7313 187.759 86.7313C185.67 86.7313 182.3 85.3403 182.3 85.3403L181.407 85.4253C181.407 85.4253 183.921 88.991 187.868 88.7845C191.816 88.5779 194.203 84.8907 194.203 84.8907H193.152Z" fill="#E8A381"/>
<path d="M139.922 198.878L205.365 201.915V151.619L139.922 148.581V198.878Z" fill="#0B5243"/>
<path d="M169.929 178.96C167.859 178.96 166.182 176.936 166.182 174.44C166.182 171.944 167.859 169.921 169.929 169.921C171.998 169.921 173.676 171.944 173.676 174.44C173.676 176.936 171.998 178.96 169.929 178.96Z" fill="#FBD300"/>
</g>
<rect width="60.3997" height="60.3997" rx="8" transform="matrix(-1 0 0 1 67.02 121.921)" fill="#0B5243"/>
<rect x="-0.375" y="0.375" width="59.6497" height="59.6497" rx="7.625" transform="matrix(-1 0 0 1 67.6582 121.921)" fill="white" stroke="#0B5243" stroke-width="0.75"/>
<path d="M60.4082 122.296H16.0088C11.7976 122.296 8.38379 125.71 8.38379 129.921V131.961H68.0332V129.921C68.0332 125.71 64.6194 122.296 60.4082 122.296Z" fill="#CBEDE1" stroke="#0B5243" stroke-width="0.75"/>
<path d="M62.2219 129.434C61.1059 129.434 60.2011 128.529 60.2011 127.413C60.2011 126.297 61.1059 125.393 62.2219 125.393C63.3379 125.393 64.2427 126.297 64.2427 127.413C64.2427 128.529 63.3379 129.434 62.2219 129.434Z" fill="#FBF9ED" stroke="#0B5243" stroke-width="0.75" stroke-miterlimit="10"/>
<path d="M56.156 129.434C55.0399 129.434 54.1352 128.529 54.1352 127.413C54.1352 126.297 55.0399 125.393 56.156 125.393C57.272 125.393 58.1768 126.297 58.1768 127.413C58.1768 128.529 57.272 129.434 56.156 129.434Z" fill="#FBF9ED" stroke="#0B5243" stroke-width="0.75" stroke-miterlimit="10"/>
<path d="M50.0847 129.434C48.9686 129.434 48.0639 128.529 48.0639 127.413C48.0639 126.297 48.9686 125.393 50.0847 125.393C51.2007 125.393 52.1055 126.297 52.1055 127.413C52.1055 128.529 51.2007 129.434 50.0847 129.434Z" fill="#FBF9ED" stroke="#0B5243" stroke-width="0.75" stroke-miterlimit="10"/>
<path d="M31.7023 164.651C31.7023 164.65 31.7036 164.65 31.7042 164.651C33.5246 166.774 36.2228 168.128 39.2428 168.128C41.794 168.128 44.1281 167.157 45.8886 165.569C46.4355 165.076 47.26 164.974 47.8501 165.414L54.1696 170.131C54.7882 170.593 54.9186 171.472 54.4148 172.057C50.722 176.344 45.2554 179.057 39.1553 179.057C33.0633 179.057 27.7581 176.432 24.084 172.266C23.5735 171.688 23.6918 170.807 24.3038 170.336L31.7019 164.652C31.7022 164.652 31.7023 164.652 31.7023 164.651Z" fill="#088F73"/>
<path d="M49.2301 158.197C49.2301 156.407 48.7515 154.732 47.9203 153.283C47.5444 152.627 47.634 151.775 48.2195 151.297L53.4759 147.009C54.0737 146.522 54.9583 146.608 55.3995 147.241C57.4715 150.212 58.689 153.825 58.689 157.721C58.689 161.337 57.6436 164.708 55.8375 167.548C55.4239 168.198 54.5443 168.322 53.9265 167.861L48.8214 164.05C48.2465 163.621 48.1006 162.829 48.3904 162.173C48.9277 160.956 49.2301 159.613 49.2301 158.197Z" fill="#0B5243"/>
<path d="M39.3376 148.265C39.2854 148.265 39.2431 148.226 39.2431 148.174V141.446C39.2431 140.674 39.8698 140.043 40.6386 140.107C44.7618 140.451 48.4559 142.304 51.1693 145.11C51.7057 145.665 51.6127 146.55 51.0147 147.038L47.1157 150.219C46.5715 150.663 45.7879 150.625 45.223 150.207C43.5755 148.989 41.5429 148.265 39.3376 148.265Z" fill="#FDD500"/>
<path d="M36.6662 135.85C37.4362 135.802 38.0635 136.432 38.0635 137.203V147.115C38.0635 147.82 37.5343 148.404 36.851 148.577C32.5505 149.667 29.3677 153.558 29.3677 158.197C29.3677 159.64 29.68 161.006 30.2361 162.241C30.5288 162.892 30.392 163.679 29.8264 164.114L21.7509 170.32C21.1394 170.789 20.2589 170.677 19.828 170.038C17.4696 166.536 16.0896 162.32 16.0896 157.784C16.0862 146.116 25.1802 136.571 36.6662 135.85Z" fill="#0CC79F"/>
<rect width="60.939" height="60.939" rx="8" transform="matrix(-1 0 0 1 60.939 0)" fill="#0B5243"/>
<rect x="-0.375" y="0.375" width="60.189" height="60.189" rx="7.625" transform="matrix(-1 0 0 1 61.5898 0)" fill="white" stroke="#0B5243" stroke-width="0.75"/>
<path d="M54.3398 0.375H9.40039C5.18942 0.375239 1.77539 3.78898 1.77539 8V10.1318H61.9648V8C61.9648 3.78883 58.551 0.375 54.3398 0.375Z" fill="#CBEDE1" stroke="#0B5243" stroke-width="0.75"/>
<path d="M56.0979 7.57993C54.9719 7.57993 54.0591 6.66712 54.0591 5.54111C54.0591 4.4151 54.9719 3.50229 56.0979 3.50229C57.2239 3.50229 58.1367 4.4151 58.1367 5.54111C58.1367 6.66712 57.2239 7.57993 56.0979 7.57993Z" fill="#FBF9ED" stroke="#0B5243" stroke-width="0.75" stroke-miterlimit="10"/>
<path d="M49.9778 7.57993C48.8518 7.57993 47.939 6.66712 47.939 5.54111C47.939 4.4151 48.8518 3.50229 49.9778 3.50229C51.1038 3.50229 52.0166 4.4151 52.0166 5.54111C52.0166 6.66712 51.1038 7.57993 49.9778 7.57993Z" fill="#FBF9ED" stroke="#0B5243" stroke-width="0.75" stroke-miterlimit="10"/>
<path d="M43.8528 7.57993C42.7268 7.57993 41.814 6.66712 41.814 5.54111C41.814 4.4151 42.7268 3.50229 43.8528 3.50229C44.9788 3.50229 45.8916 4.4151 45.8916 5.54111C45.8916 6.66712 44.9788 7.57993 43.8528 7.57993Z" fill="#FBF9ED" stroke="#0B5243" stroke-width="0.75" stroke-miterlimit="10"/>
<path d="M50.0819 27.815H52.6525C53.7473 27.815 54.6348 28.7025 54.6348 29.7973V50.4465C54.6348 51.5413 53.7473 52.4287 52.6525 52.4287H50.0819C48.9871 52.4287 48.0996 51.5413 48.0996 50.4465V29.7973C48.0996 28.7025 48.9871 27.815 50.0819 27.815Z" fill="#0CC79F"/>
<path d="M11.0882 23.7242H13.6589C14.7536 23.7242 15.6411 24.6117 15.6411 25.7065V50.4463C15.6411 51.5411 14.7536 52.4286 13.6589 52.4286H11.0882C9.99342 52.4286 9.10594 51.5411 9.10594 50.4463V25.7065C9.10594 24.6117 9.99342 23.7242 11.0882 23.7242Z" fill="#0CC79F"/>
<path d="M36.6063 32.7952H39.1769C40.2717 32.7952 41.1592 33.6827 41.1592 34.7774V50.4465C41.1592 51.5413 40.2717 52.4288 39.1769 52.4288H36.6063C35.5115 52.4288 34.624 51.5413 34.624 50.4465V34.7774C34.624 33.6827 35.5115 32.7952 36.6063 32.7952Z" fill="#0CC79F"/>
<path d="M23.5491 15.41H26.1198C27.2145 15.41 28.1021 16.2974 28.1021 17.3922V50.4464C28.1021 51.5412 27.2145 52.4287 26.1198 52.4287H23.5491C22.4544 52.4287 21.5669 51.5412 21.5669 50.4464V17.3922C21.5669 16.2974 22.4544 15.41 23.5491 15.41Z" fill="#0CC79F"/>
<defs>
<clipPath id="clip0_208_2139">
<rect width="149.505" height="168.263" fill="white" transform="matrix(-1 0 0 1 247.153 33.6526)"/>
</clipPath>
</defs>
</svg>
