<svg width="243" height="193" viewBox="0 0 243 193" fill="none" xmlns="http://www.w3.org/2000/svg">
<path d="M234.459 192.78H7.60649C5.58912 192.78 3.65438 191.98 2.22789 190.555C0.801394 189.131 0 187.199 0 185.185C82.234 175.642 162.923 175.642 242.066 185.185C242.066 187.199 241.264 189.131 239.838 190.555C238.411 191.98 236.476 192.78 234.459 192.78Z" fill="#2F2E41"/>
<path d="M242.066 185.632L0 185.185L28.0546 138.051L28.1888 137.828V33.9498C28.1887 32.689 28.4373 31.4405 28.9205 30.2756C29.4037 29.1107 30.112 28.0522 31.0049 27.1607C31.8978 26.2691 32.9578 25.5619 34.1245 25.0794C35.2911 24.597 36.5415 24.3487 37.8043 24.3488H202.919C204.182 24.3487 205.432 24.597 206.599 25.0794C207.765 25.5619 208.825 26.2691 209.718 27.1607C210.611 28.0522 211.32 29.1107 211.803 30.2756C212.286 31.4405 212.535 32.689 212.534 33.9498V138.542L242.066 185.632Z" fill="#3F3D56"/>
<path d="M37.5851 31.0503C36.7547 31.0512 35.9586 31.381 35.3714 31.9673C34.7842 32.5536 34.4539 33.3485 34.453 34.1777V128.892C34.454 129.721 34.7843 130.516 35.3714 131.103C35.9586 131.689 36.7547 132.019 37.5851 132.02H204.481C205.311 132.019 206.107 131.689 206.694 131.103C207.281 130.516 207.612 129.721 207.613 128.892V34.1777C207.612 33.3485 207.281 32.5536 206.694 31.9674C206.107 31.3811 205.311 31.0513 204.481 31.0503H37.5851Z" fill="white"/>
<path d="M38.2844 144.529C38.0278 144.53 37.7767 144.603 37.5606 144.741C37.3445 144.88 37.1725 145.077 37.0649 145.309L28.4204 164.073C28.3263 164.278 28.2851 164.502 28.3007 164.726C28.3163 164.951 28.3881 165.167 28.5095 165.357C28.631 165.546 28.7981 165.702 28.9956 165.81C29.1931 165.917 29.4146 165.974 29.6397 165.974H211.429C211.657 165.974 211.882 165.916 212.082 165.804C212.282 165.693 212.45 165.533 212.57 165.338C212.691 165.144 212.759 164.922 212.769 164.694C212.78 164.466 212.731 164.238 212.629 164.034L203.233 145.27C203.122 145.047 202.951 144.859 202.738 144.728C202.526 144.597 202.282 144.528 202.032 144.529H38.2844Z" fill="#2F2E41"/>
<path d="M120.362 29.4866C121.474 29.4866 122.375 28.5865 122.375 27.4761C122.375 26.3658 121.474 25.4657 120.362 25.4657C119.25 25.4657 118.348 26.3658 118.348 27.4761C118.348 28.5865 119.25 29.4866 120.362 29.4866Z" fill="white"/>
<path d="M102.493 169.548C102.198 169.548 101.911 169.646 101.677 169.825C101.443 170.004 101.274 170.255 101.197 170.54L99.0289 178.582C98.9753 178.78 98.9682 178.988 99.0082 179.19C99.0482 179.392 99.1341 179.582 99.2595 179.745C99.3848 179.909 99.5461 180.041 99.7308 180.132C99.9156 180.223 100.119 180.27 100.325 180.27H141.563C141.777 180.27 141.988 180.219 142.178 180.121C142.368 180.024 142.532 179.882 142.656 179.708C142.78 179.533 142.861 179.332 142.891 179.121C142.921 178.909 142.901 178.694 142.831 178.492L140.043 170.45C139.952 170.187 139.78 169.958 139.553 169.797C139.326 169.635 139.054 169.548 138.774 169.548H102.493Z" fill="#2F2E41"/>
<path d="M212.534 136.264V138.051H28.0544L28.1933 137.828V136.264H212.534Z" fill="#2F2E41"/>
<path d="M207.389 62.5474C224.687 62.5474 238.71 48.5457 238.71 31.2737C238.71 14.0017 224.687 0 207.389 0C190.091 0 176.068 14.0017 176.068 31.2737C176.068 48.5457 190.091 62.5474 207.389 62.5474Z" fill="#317C74"/>
<path d="M220.365 44.9001H194.413C193.939 44.8996 193.484 44.7112 193.148 44.3761C192.812 44.0411 192.624 43.5868 192.623 43.113V27.4762C192.624 27.0023 192.813 26.5481 193.148 26.2131C193.484 25.878 193.939 25.6896 194.413 25.6891H220.365C220.839 25.6896 221.294 25.878 221.63 26.2131C221.965 26.5481 222.154 27.0023 222.154 27.4762V43.113C222.154 43.5868 221.965 44.0411 221.63 44.3761C221.294 44.7112 220.839 44.8996 220.365 44.9001ZM194.413 27.4762V43.113H220.366L220.365 27.4762L194.413 27.4762Z" fill="white"/>
<path d="M215.443 27.4762H199.335V20.3279C199.335 15.1504 202.722 11.3925 207.389 11.3925C212.056 11.3925 215.443 15.1504 215.443 20.3279L215.443 27.4762ZM201.125 25.6891H213.653V20.3279C213.653 16.1191 211.077 13.1796 207.389 13.1796C203.701 13.1796 201.125 16.1192 201.125 20.3279L201.125 25.6891Z" fill="white"/>
<path d="M207.389 36.6349C208.377 36.6349 209.179 35.8348 209.179 34.8478C209.179 33.8608 208.377 33.0607 207.389 33.0607C206.4 33.0607 205.599 33.8608 205.599 34.8478C205.599 35.8348 206.4 36.6349 207.389 36.6349Z" fill="white"/>
<path d="M185.524 99.8934H56.5413C55.908 99.8927 55.3009 99.6411 54.8531 99.194C54.4053 98.7469 54.1535 98.1407 54.1527 97.5084V65.5615C54.1535 64.9292 54.4053 64.323 54.8531 63.8759C55.3009 63.4288 55.908 63.1773 56.5413 63.1765H185.524C186.157 63.1773 186.765 63.4288 187.212 63.8759C187.66 64.323 187.912 64.9292 187.913 65.5615V97.5084C187.912 98.1407 187.66 98.7469 187.212 99.194C186.765 99.6411 186.157 99.8927 185.524 99.8934ZM56.5413 64.1305C56.1613 64.1309 55.797 64.2818 55.5283 64.5501C55.2597 64.8184 55.1086 65.1821 55.1081 65.5615V97.5084C55.1086 97.8878 55.2597 98.2516 55.5283 98.5198C55.797 98.7881 56.1613 98.939 56.5413 98.9394H185.524C185.904 98.939 186.268 98.7881 186.537 98.5198C186.806 98.2516 186.957 97.8878 186.957 97.5084V65.5615C186.957 65.1821 186.806 64.8183 186.537 64.5501C186.268 64.2818 185.904 64.1309 185.524 64.1305L56.5413 64.1305Z" fill="#E6E6E6"/>
<path d="M76.5827 90.0242C81.9562 90.0242 86.3124 85.6746 86.3124 80.3091C86.3124 74.9436 81.9562 70.594 76.5827 70.594C71.2091 70.594 66.8529 74.9436 66.8529 80.3091C66.8529 85.6746 71.2091 90.0242 76.5827 90.0242Z" fill="#E6E6E6"/>
<path d="M99.0537 73.8324C98.8406 73.8321 98.6294 73.8737 98.4324 73.9549C98.2353 74.0362 98.0563 74.1554 97.9054 74.3058C97.7546 74.4562 97.6349 74.6348 97.5532 74.8314C97.4716 75.028 97.4296 75.2388 97.4296 75.4516C97.4296 75.6645 97.4716 75.8752 97.5532 76.0718C97.6349 76.2684 97.7546 76.4471 97.9054 76.5974C98.0563 76.7478 98.2353 76.867 98.4324 76.9483C98.6294 77.0295 98.8406 77.0711 99.0537 77.0708H175.502C175.932 77.0708 176.344 76.9002 176.648 76.5965C176.953 76.2929 177.123 75.881 177.123 75.4516C177.123 75.0222 176.953 74.6103 176.648 74.3067C176.344 74.003 175.932 73.8324 175.502 73.8324H99.0537Z" fill="#E6E6E6"/>
<path d="M99.0537 83.5475C98.6237 83.5475 98.2112 83.7181 97.9071 84.0218C97.603 84.3254 97.4321 84.7373 97.4321 85.1667C97.4321 85.5961 97.603 86.008 97.9071 86.3116C98.2112 86.6153 98.6237 86.7859 99.0537 86.7859H131.95C132.38 86.7859 132.792 86.6153 133.096 86.3116C133.4 86.008 133.571 85.5961 133.571 85.1667C133.571 84.7373 133.4 84.3254 133.096 84.0218C132.792 83.7181 132.38 83.5475 131.95 83.5475H99.0537Z" fill="#E6E6E6"/>
</svg>
